<svg width="121" height="98" viewBox="0 0 121 98" fill="none" xmlns="http://www.w3.org/2000/svg">
<path d="M119.596 82.3526L105.007 60.5373C105.007 60.5373 105.007 60.5373 105.007 60.4594V14.4916C105.007 6.54458 98.5319 0 90.4965 0H14.5887C6.55319 0 0 6.54458 0 14.5695V59.6803C0 59.6803 0 59.6803 0 59.7582C0.390071 80.4048 17.3191 97.0779 38.0709 97.0779C57.2624 97.0779 73.0993 82.8201 75.6738 64.2771V28.3598C75.6738 26.2562 73.9574 24.6201 71.9291 24.6201H65.2199C63.6596 24.6201 62.3333 25.555 61.7092 26.9574L53.2837 47.6819H52.8156L44.3121 26.9574C43.766 25.555 42.3617 24.6201 40.8014 24.6201H34.0922C31.9858 24.6201 30.3475 26.3341 30.3475 28.3598V61.0827C30.3475 62.7968 31.7518 64.1992 33.4681 64.1992H37.3688C39.0851 64.1992 40.4894 62.7968 40.4894 61.0827V40.7478H40.8014L49.1489 62.2514C49.539 63.2643 50.5532 63.9655 51.6454 63.9655H54.2199C55.3121 63.9655 56.3262 63.2643 56.7163 62.2514L65.1418 40.9036H65.5319V64.1992C63.0355 77.0546 51.6454 86.7936 38.0709 86.7936C22.7021 86.7936 10.1418 74.3277 10.1418 58.9012V14.4916C10.1418 12.0763 12.0922 10.1285 14.5106 10.1285H90.4965C92.9149 10.1285 94.8652 12.0763 94.8652 14.4916V61.8618C94.8652 62.9526 95.1773 64.0434 95.8014 64.9783L107.191 82.041C107.972 83.2096 107.113 84.7679 105.709 84.7679H82.0709C80.9787 84.7679 79.9645 85.3132 79.2624 86.1703L74.5816 92.2474C73.7234 93.3382 74.5035 94.9743 75.9078 94.9743H112.418C115.071 94.9743 117.723 93.8056 119.284 91.6241C121.468 88.8972 121.468 85.1574 119.596 82.3526Z" fill="#3F80F2"/>
</svg>
