<svg width="24" height="24" viewBox="0 0 24 24" fill="none" xmlns="http://www.w3.org/2000/svg">
<path fill-rule="evenodd" clip-rule="evenodd" d="M9.35065 4.05195C8.48995 4.05195 7.79221 3.35421 7.79221 2.49351C7.79221 1.97708 7.37356 1.55844 6.85714 1.55844C6.34072 1.55844 5.92208 1.97708 5.92208 2.49351C5.92208 3.35421 5.22434 4.05195 4.36364 4.05195H2.49351C1.98278 4.05195 1.55844 4.47629 1.55844 4.98701V21.5065C1.55844 22.0172 1.98278 22.4416 2.49351 22.4416H21.5065C22.0172 22.4416 22.4416 22.0172 22.4416 21.5065V4.98701C22.4416 4.47629 22.0172 4.05195 21.5065 4.05195H19.6364C18.7757 4.05195 18.0779 3.35421 18.0779 2.49351C18.0779 1.97708 17.6593 1.55844 17.1429 1.55844C16.6264 1.55844 16.2078 1.97708 16.2078 2.49351C16.2078 3.35421 15.5101 4.05195 14.6494 4.05195H9.35065ZM9.35065 2.49351C9.35065 1.11638 8.23427 0 6.85714 0C5.48002 0 4.36364 1.11638 4.36364 2.49351H2.49351C1.12208 2.49351 0 3.61558 0 4.98701V21.5065C0 22.8779 1.12208 24 2.49351 24H21.5065C22.8779 24 24 22.8779 24 21.5065V4.98701C24 3.61558 22.8779 2.49351 21.5065 2.49351H19.6364C19.6364 1.11638 18.52 0 17.1429 0C15.7657 0 14.6494 1.11638 14.6494 2.49351H9.35065Z" fill="black" fill-opacity="0.2"/>
<path fill-rule="evenodd" clip-rule="evenodd" d="M4.98682 9.50652C4.98682 9.07616 5.33569 8.72729 5.76604 8.72729H18.2336C18.6639 8.72729 19.0128 9.07616 19.0128 9.50652C19.0128 9.93687 18.6639 10.2857 18.2336 10.2857H5.76604C5.33569 10.2857 4.98682 9.93687 4.98682 9.50652ZM4.98682 13.5585C4.98682 13.1281 5.33569 12.7792 5.76604 12.7792H18.2336C18.6639 12.7792 19.0128 13.1281 19.0128 13.5585C19.0128 13.9888 18.6639 14.3377 18.2336 14.3377H5.76604C5.33569 14.3377 4.98682 13.9888 4.98682 13.5585ZM5.76604 16.8312C5.33569 16.8312 4.98682 17.1801 4.98682 17.6104C4.98682 18.0408 5.33569 18.3896 5.76604 18.3896H18.2336C18.6639 18.3896 19.0128 18.0408 19.0128 17.6104C19.0128 17.1801 18.6639 16.8312 18.2336 16.8312H5.76604Z" fill="black" fill-opacity="0.2"/>
</svg>
