<svg width="24" height="24" viewBox="0 0 24 24" fill="none" xmlns="http://www.w3.org/2000/svg">
<path fill-rule="evenodd" clip-rule="evenodd" d="M0 2C0 0.89543 0.895431 0 2 0H22C23.1046 0 24 0.895431 24 2V22C24 23.1046 23.1046 24 22 24H2C0.89543 24 0 23.1046 0 22V2ZM8.25 7C8.25 6.58579 8.58579 6.25 9 6.25H19C19.4142 6.25 19.75 6.58579 19.75 7C19.75 7.41421 19.4142 7.75 19 7.75H9C8.58579 7.75 8.25 7.41421 8.25 7ZM9 11.25C8.58579 11.25 8.25 11.5858 8.25 12C8.25 12.4142 8.58579 12.75 9 12.75H19C19.4142 12.75 19.75 12.4142 19.75 12C19.75 11.5858 19.4142 11.25 19 11.25H9ZM8.25 17C8.25 16.5858 8.58579 16.25 9 16.25H19C19.4142 16.25 19.75 16.5858 19.75 17C19.75 17.4142 19.4142 17.75 19 17.75H9C8.58579 17.75 8.25 17.4142 8.25 17ZM4.5 6C4.22386 6 4 6.22386 4 6.5V7.5C4 7.77614 4.22386 8 4.5 8H5.5C5.77614 8 6 7.77614 6 7.5V6.5C6 6.22386 5.77614 6 5.5 6H4.5ZM4 11.5C4 11.2239 4.22386 11 4.5 11H5.5C5.77614 11 6 11.2239 6 11.5V12.5C6 12.7761 5.77614 13 5.5 13H4.5C4.22386 13 4 12.7761 4 12.5V11.5ZM4.5 16C4.22386 16 4 16.2239 4 16.5V17.5C4 17.7761 4.22386 18 4.5 18H5.5C5.77614 18 6 17.7761 6 17.5V16.5C6 16.2239 5.77614 16 5.5 16H4.5Z" fill="#C6C9D2"/>
</svg>
