<svg width="24" height="24" viewBox="0 0 24 24" fill="none" xmlns="http://www.w3.org/2000/svg">
<path d="M1.11501 7.2872C0.412329 7.82689 0 8.66288 0 9.54907V21.3215C0 22.8008 1.19921 24 2.67852 24H7.37982C7.87041 24 8.26762 23.6022 8.26762 23.1122V18.6538C8.40093 17.1458 9.0205 16.0611 10.2532 15.5106C11.1734 15.0999 12.2344 15.1004 13.154 15.5127C14.3932 16.0681 14.9917 17.1642 15.1229 18.6538V23.1122C15.1229 23.6028 15.5206 24 16.0107 24H20.712C22.1913 24 23.3905 22.8008 23.3905 21.3215V9.54907C23.3905 8.66288 22.9782 7.82689 22.2755 7.2872L13.6565 0.665649C12.5015 -0.221613 10.8938 -0.222153 9.73884 0.665649L1.11501 7.2872Z" fill="#C6C9D2"/>
</svg>
