<svg width="24" height="24" viewBox="0 0 24 24" fill="none" xmlns="http://www.w3.org/2000/svg">
<path fill-rule="evenodd" clip-rule="evenodd" d="M12 22.4416C17.7667 22.4416 22.4416 17.7667 22.4416 12C22.4416 6.23329 17.7667 1.55844 12 1.55844C6.23329 1.55844 1.55844 6.23329 1.55844 12C1.55844 17.7667 6.23329 22.4416 12 22.4416ZM24 12C24 18.6274 18.6274 24 12 24C5.37258 24 0 18.6274 0 12C0 5.37258 5.37258 0 12 0C18.6274 0 24 5.37258 24 12Z" fill="black" fill-opacity="0.2"/>
<path d="M7.6364 10.5974C8.32496 10.5974 8.88316 10.0392 8.88316 9.35064C8.88316 8.66207 8.32496 8.10388 7.6364 8.10388C6.94784 8.10388 6.38965 8.66207 6.38965 9.35064C6.38965 10.0392 6.94784 10.5974 7.6364 10.5974Z" fill="black" fill-opacity="0.2"/>
<path d="M16.3639 10.5974C17.0525 10.5974 17.6107 10.0392 17.6107 9.35064C17.6107 8.66207 17.0525 8.10388 16.3639 8.10388C15.6754 8.10388 15.1172 8.66207 15.1172 9.35064C15.1172 10.0392 15.6754 10.5974 16.3639 10.5974Z" fill="black" fill-opacity="0.2"/>
<path fill-rule="evenodd" clip-rule="evenodd" d="M12.2905 11.7405C12.112 11.5621 11.8861 11.4987 11.7049 11.5246C11.2789 11.5854 10.8842 11.2894 10.8233 10.8634C10.7625 10.4374 11.0585 10.0427 11.4845 9.9818C12.1761 9.88301 12.8852 10.1313 13.3925 10.6386C14.289 11.5351 14.289 12.9947 13.3925 13.8912C12.496 14.7877 11.0364 14.7877 10.1398 13.8912C9.83554 13.5869 9.83554 13.0935 10.1398 12.7892C10.4442 12.4849 10.9375 12.4849 11.2418 12.7892C11.5297 13.0771 12.0026 13.0771 12.2905 12.7892C12.5784 12.5013 12.5784 12.0284 12.2905 11.7405Z" fill="black" fill-opacity="0.2"/>
<path fill-rule="evenodd" clip-rule="evenodd" d="M13.7453 16.5506C13.2977 16.5506 12.9349 16.9135 12.9349 17.361C12.9349 17.8086 13.2977 18.1714 13.7453 18.1714C14.1929 18.1714 14.5557 17.8086 14.5557 17.361C14.5557 16.9135 14.1929 16.5506 13.7453 16.5506ZM11.3765 17.361C11.3765 16.0527 12.437 14.9922 13.7453 14.9922C15.0536 14.9922 16.1141 16.0528 16.1141 17.361C16.1141 18.6693 15.0536 19.7299 13.7453 19.7299C12.437 19.7299 11.3765 18.6693 11.3765 17.361Z" fill="black" fill-opacity="0.2"/>
</svg>
