<svg width="24" height="24" viewBox="0 0 24 24" fill="none" xmlns="http://www.w3.org/2000/svg">
<path fill-rule="evenodd" clip-rule="evenodd" d="M11.161 1.87109L1.97079 9.97618C1.71313 10.2088 1.55844 10.5633 1.55844 10.9006V21.193C1.55844 21.86 2.13863 22.4405 2.80519 22.4405H21.1948C21.8925 22.4405 22.4416 21.8912 22.4416 21.193V10.9318C22.4416 10.5722 22.2934 10.2451 22.0283 10.0066C22.0275 10.0058 22.0266 10.005 22.0258 10.0043L12.839 1.87109C12.8388 1.8709 12.8386 1.87072 12.8384 1.87053C12.3678 1.45557 11.6314 1.45576 11.161 1.87109ZM13.8701 0.701754L23.0649 8.84211C23.6571 9.37232 24 10.1209 24 10.9318V21.193C24 22.7524 22.7532 24 21.1948 24H2.80519C1.27792 24 0 22.7212 0 21.193V10.9006C0 10.1209 0.342857 9.34113 0.935065 8.81092L10.1299 0.701754C11.1896 -0.233918 12.8104 -0.233918 13.8701 0.701754Z" fill="black" fill-opacity="0.2"/>
<path fill-rule="evenodd" clip-rule="evenodd" d="M7.0127 19.7895C7.0127 19.3589 7.36156 19.0098 7.79192 19.0098H16.2075C16.6379 19.0098 16.9867 19.3589 16.9867 19.7895C16.9867 20.2201 16.6379 20.5692 16.2075 20.5692H7.79192C7.36156 20.5692 7.0127 20.2201 7.0127 19.7895Z" fill="black" fill-opacity="0.2"/>
</svg>
