<svg width="24" height="24" viewBox="0 0 24 24" fill="none" xmlns="http://www.w3.org/2000/svg">
<path fill-rule="evenodd" clip-rule="evenodd" d="M12 22.4416C17.7667 22.4416 22.4416 17.7667 22.4416 12C22.4416 6.23329 17.7667 1.55844 12 1.55844C6.23329 1.55844 1.55844 6.23329 1.55844 12C1.55844 17.7667 6.23329 22.4416 12 22.4416ZM24 12C24 18.6274 18.6274 24 12 24C5.37258 24 0 18.6274 0 12C0 5.37258 5.37258 0 12 0C18.6274 0 24 5.37258 24 12Z" fill="black" fill-opacity="0.2"/>
<path fill-rule="evenodd" clip-rule="evenodd" d="M17.8199 13.3067C18.2344 13.4225 18.4765 13.8523 18.3607 14.2668C17.6544 16.7946 14.9807 18.5454 11.9998 18.5454C9.08793 18.5454 6.52779 16.9304 5.71371 14.5251C5.57574 14.1175 5.79434 13.6752 6.20198 13.5372C6.60962 13.3993 7.05192 13.6179 7.18989 14.0255C7.74723 15.6722 9.61306 16.987 11.9998 16.987C14.4423 16.987 16.3816 15.5586 16.8598 13.8474C16.9756 13.433 17.4054 13.1908 17.8199 13.3067Z" fill="black" fill-opacity="0.2"/>
<path d="M7.6364 10.5974C8.32496 10.5974 8.88315 10.0392 8.88315 9.35064C8.88315 8.66207 8.32496 8.10388 7.6364 8.10388C6.94784 8.10388 6.38965 8.66207 6.38965 9.35064C6.38965 10.0392 6.94784 10.5974 7.6364 10.5974Z" fill="black" fill-opacity="0.2"/>
<path d="M16.3639 10.5974C17.0525 10.5974 17.6107 10.0392 17.6107 9.35064C17.6107 8.66207 17.0525 8.10388 16.3639 8.10388C15.6754 8.10388 15.1172 8.66207 15.1172 9.35064C15.1172 10.0392 15.6754 10.5974 16.3639 10.5974Z" fill="black" fill-opacity="0.2"/>
<path fill-rule="evenodd" clip-rule="evenodd" d="M12.2905 11.7405C12.1121 11.5621 11.8861 11.4987 11.7049 11.5246C11.2789 11.5854 10.8842 11.2894 10.8234 10.8634C10.7625 10.4374 11.0585 10.0427 11.4845 9.9818C12.1761 9.88301 12.8852 10.1313 13.3925 10.6386C14.289 11.5351 14.289 12.9947 13.3925 13.8912C12.496 14.7877 11.0364 14.7877 10.1398 13.8912C9.83554 13.5869 9.83554 13.0935 10.1398 12.7892C10.4442 12.4849 10.9375 12.4849 11.2418 12.7892C11.5297 13.0771 12.0026 13.0771 12.2905 12.7892C12.5784 12.5013 12.5784 12.0284 12.2905 11.7405Z" fill="black" fill-opacity="0.2"/>
</svg>
